<?xml version="1.0" standalone="no"?>
<!DOCTYPE svg PUBLIC "-//W3C//DTD SVG 20010904//EN"
 "http://www.w3.org/TR/2001/REC-SVG-20010904/DTD/svg10.dtd">
<svg version="1.0" xmlns="http://www.w3.org/2000/svg"
 width="1280.000000pt" height="1218.000000pt" viewBox="0 0 1280.000000 1218.000000"
 preserveAspectRatio="xMidYMid meet">

<g transform="translate(0.000000,1218.000000) scale(0.100000,-0.100000)"
fill="#000000" stroke="none">
<path d="M5820 12174 c-189 -8 -551 -46 -710 -74 -154 -27 -289 -52 -320 -60
-19 -5 -93 -23 -165 -40 -889 -216 -1737 -649 -2467 -1262 -180 -150 -607
-581 -747 -753 -556 -681 -919 -1361 -1161 -2170 -68 -228 -117 -441 -170
-745 -51 -292 -74 -592 -73 -985 0 -392 22 -684 73 -975 28 -161 53 -289 61
-320 5 -19 23 -93 40 -165 56 -236 138 -496 230 -730 68 -175 65 -161 32 -169
-64 -17 -175 -77 -223 -122 -94 -88 -117 -162 -100 -324 55 -547 312 -1132
701 -1595 86 -103 302 -314 399 -391 41 -32 81 -64 87 -71 47 -43 326 -216
463 -286 480 -244 916 -347 1470 -347 l238 0 84 -39 c328 -153 755 -300 1103
-380 50 -12 108 -26 130 -31 190 -44 484 -88 775 -116 246 -24 788 -24 1040 0
309 29 486 56 825 126 125 26 444 116 606 170 423 143 875 356 1264 598 115
71 405 268 415 281 3 4 19 17 36 29 31 21 35 22 195 12 303 -18 434 -31 729
-71 599 -83 1039 -221 1587 -500 137 -70 210 -102 205 -91 -9 20 -107 215
-207 407 -40 77 -130 253 -200 390 -70 138 -160 313 -200 390 -129 250 -195
382 -195 391 0 5 35 32 78 61 42 28 109 73 147 100 39 27 165 114 280 193 116
79 242 166 280 193 39 27 130 89 203 139 72 50 132 94 132 97 0 7 -402 206
-555 274 -157 70 -338 142 -498 198 -77 26 -141 49 -143 52 -3 2 12 40 32 83
367 794 554 1653 554 2549 0 672 -109 1336 -323 1960 -101 295 -187 498 -327
777 -70 137 -76 149 -158 292 -344 608 -839 1194 -1397 1655 -55 46 -109 90
-120 100 -50 41 -221 166 -335 243 -492 335 -1004 585 -1585 773 -389 126
-835 215 -1305 260 -152 15 -643 26 -810 19z m-393 -571 c0 -9 -4 -10 -14 -2
-7 6 -13 12 -13 14 0 1 6 2 13 2 8 0 14 -6 14 -14z m-32 -13 c-3 -5 -1 -10 5
-10 7 0 6 -6 -3 -15 -9 -8 -14 -23 -12 -32 2 -10 4 -21 4 -25 1 -10 125 4 132
14 4 6 37 7 83 3 47 -5 76 -4 76 2 0 15 207 27 440 27 215 0 440 -12 440 -24
0 -4 53 -7 117 -7 82 1 118 -3 121 -11 2 -8 30 -12 83 -12 46 0 79 -4 79 -10
0 -5 21 -10 48 -10 26 -1 65 -7 87 -15 22 -8 54 -15 72 -15 17 0 33 -5 35 -10
2 -6 40 -11 85 -13 44 -1 80 -6 80 -11 -1 -5 15 -14 36 -19 21 -5 37 -15 37
-23 0 -10 12 -14 40 -14 22 0 40 -4 40 -10 0 -5 21 -10 48 -10 29 0 59 -8 80
-20 28 -17 32 -18 32 -4 0 15 2 15 25 0 13 -9 31 -16 40 -16 8 0 15 -7 15 -15
0 -11 11 -15 40 -15 22 0 40 -4 40 -9 0 -5 18 -13 40 -19 32 -8 40 -7 40 4 0
8 5 14 10 14 6 0 10 -4 10 -9 0 -6 -4 -13 -10 -16 -5 -3 -10 -13 -10 -22 0
-12 10 -14 46 -11 39 3 44 1 41 -14 -3 -10 -2 -17 2 -16 20 2 21 -4 0 -23
l-24 -20 27 17 c15 9 26 20 23 24 -3 5 -2 10 2 13 5 2 2 2 -4 1 -7 -2 -12 2
-10 8 1 6 -9 17 -23 25 -24 12 -24 13 -3 13 12 0 26 -6 30 -14 11 -19 47 -25
48 -8 0 7 7 17 15 22 8 5 10 10 4 10 -6 0 -11 7 -11 15 0 8 3 13 5 10 3 -3 13
1 21 9 11 10 21 12 31 6 11 -7 12 -10 2 -10 -7 0 -11 -4 -7 -10 3 -5 13 -6 22
-3 11 4 14 3 9 -5 -4 -7 -3 -12 3 -12 5 0 13 5 16 10 10 15 25 12 25 -6 0 -9
6 -14 13 -11 6 2 23 -1 37 -8 29 -14 66 -18 207 -19 73 -1 103 -5 103 -13 0
-7 -6 -16 -13 -20 -8 -4 -18 -15 -23 -25 -5 -9 -25 -34 -44 -55 -20 -21 -35
-45 -35 -53 1 -8 -5 -22 -13 -32 -14 -17 -1 -35 18 -23 6 3 13 -1 16 -9 3 -9
12 -16 20 -16 7 0 25 -5 39 -12 l26 -12 -23 -18 -23 -18 23 0 c12 0 22 5 22
10 0 6 9 10 20 10 11 0 20 -3 20 -7 0 -5 18 -17 40 -27 22 -10 37 -22 35 -26
-3 -4 5 -10 17 -13 20 -6 73 24 62 35 -3 3 2 8 11 12 10 4 14 2 9 -5 -3 -6 5
-3 20 6 23 15 40 45 18 31 -5 -3 -9 1 -9 9 0 10 6 10 26 -3 14 -10 22 -12 18
-6 -4 8 1 12 16 12 12 0 45 2 74 3 29 1 58 -3 66 -9 8 -7 26 -13 40 -14 14 -1
23 -6 21 -10 -3 -4 -1 -8 4 -8 5 0 26 -13 47 -30 21 -16 35 -30 31 -30 -4 0 0
-7 8 -16 9 -8 16 -22 16 -30 0 -8 4 -13 8 -10 5 3 10 -3 11 -12 4 -28 7 -269
3 -250 -5 26 -28 29 -40 4 -9 -20 -7 -22 34 -23 34 -2 50 -9 72 -33 16 -16 37
-30 46 -30 9 0 16 -8 16 -20 0 -12 7 -20 18 -20 9 -1 28 -14 42 -30 13 -17 34
-30 46 -30 15 0 35 -16 61 -50 21 -27 43 -49 50 -50 7 0 17 -9 23 -20 6 -11
17 -20 25 -20 8 0 15 -4 15 -9 0 -5 90 -100 200 -211 117 -118 200 -209 200
-220 0 -11 6 -23 13 -27 8 -4 22 -20 31 -35 10 -15 26 -30 37 -33 10 -4 19
-13 19 -22 0 -9 14 -29 30 -45 17 -15 30 -35 30 -43 0 -8 7 -15 15 -15 23 0
67 -50 62 -71 -3 -11 0 -16 8 -13 7 3 15 -5 18 -16 4 -16 11 -20 26 -15 17 5
19 3 12 -22 -4 -16 -14 -28 -24 -28 -8 0 -18 -4 -21 -8 -3 -4 -3 -5 0 -2 4 2
16 0 27 -6 14 -8 18 -8 13 0 -8 12 -8 12 48 15 36 3 37 2 15 -10 -29 -16 -42
-18 -34 -4 3 6 2 10 -3 10 -5 0 -12 -9 -15 -19 -4 -17 -1 -18 27 -9 50 15 59
14 61 -9 1 -14 -3 -19 -12 -16 -10 4 -11 9 -2 19 14 18 9 18 -32 -1 -29 -12
-30 -14 -11 -15 13 0 20 -4 17 -10 -4 -6 1 -7 11 -3 13 5 16 3 11 -9 -9 -25 4
-30 26 -11 14 13 18 14 12 3 -16 -26 -15 -47 1 -26 8 11 14 23 14 28 0 4 5 8
12 8 6 0 8 -3 5 -7 -4 -3 -2 -12 5 -20 8 -11 7 -12 -5 -7 -9 3 -19 -2 -25 -13
-9 -15 -7 -19 9 -19 10 0 19 4 19 9 0 5 6 2 13 -5 15 -14 19 -50 5 -42 -16 10
-30 -7 -18 -21 7 -8 9 -19 6 -24 -4 -5 -1 -13 5 -17 8 -5 9 -3 4 6 -5 9 -4 11
3 6 7 -4 12 -16 12 -27 0 -11 6 -22 14 -25 8 -3 19 -19 25 -35 6 -16 21 -33
35 -39 18 -6 26 -17 26 -33 0 -13 9 -34 20 -47 22 -25 26 -40 10 -40 -17 0 1
-27 26 -38 15 -8 24 -20 24 -35 0 -13 9 -34 20 -47 11 -13 20 -35 20 -50 0
-19 6 -29 20 -33 13 -3 20 -14 20 -30 0 -13 9 -34 20 -47 11 -13 20 -35 20
-50 0 -19 6 -29 20 -33 13 -3 20 -14 20 -30 0 -13 9 -34 20 -47 11 -13 20 -35
20 -50 0 -18 6 -29 18 -32 11 -3 28 -36 50 -100 17 -52 32 -101 32 -108 0 -7
7 -18 15 -24 10 -7 18 -34 22 -69 5 -47 9 -57 24 -57 12 0 19 -7 19 -19 0 -11
4 -22 9 -25 4 -3 11 -29 13 -58 3 -29 11 -54 17 -56 6 -2 11 -21 11 -43 0 -28
4 -39 15 -39 8 0 15 -7 15 -15 0 -8 6 -25 13 -36 9 -17 9 -23 0 -26 -8 -3 -6
-14 8 -36 12 -20 19 -50 19 -79 0 -27 5 -48 10 -48 6 0 10 -25 10 -55 0 -44 4
-56 20 -65 16 -9 20 -21 20 -65 0 -30 5 -55 10 -55 6 0 10 -18 10 -40 0 -22 5
-40 10 -40 6 0 10 -33 10 -80 0 -47 4 -80 10 -80 6 0 10 -18 10 -40 0 -22 5
-40 10 -40 6 0 10 -33 10 -80 0 -44 4 -80 9 -80 14 0 21 -137 27 -605 4 -288
3 -471 -5 -555 -27 -295 -34 -360 -42 -360 -5 0 -9 -36 -9 -80 0 -47 -4 -80
-10 -80 -5 0 -10 -18 -10 -40 0 -22 -4 -40 -10 -40 -5 0 -10 -21 -10 -47 0
-30 -7 -60 -19 -80 -11 -17 -16 -33 -12 -35 13 -5 0 -78 -14 -78 -9 0 -15 -26
-20 -87 -6 -82 -27 -165 -47 -187 -4 -6 -8 -18 -8 -28 0 -10 -4 -18 -10 -18
-5 0 -10 -16 -10 -35 0 -32 -27 -117 -50 -157 -6 -10 -10 -25 -10 -33 0 -8 -4
-15 -10 -15 -5 0 -10 -16 -10 -35 0 -32 -27 -117 -50 -157 -6 -10 -10 -25 -10
-33 0 -8 -8 -15 -19 -15 -15 0 -19 -10 -24 -57 -4 -35 -12 -62 -22 -69 -8 -6
-15 -16 -15 -23 0 -6 -4 -11 -10 -11 -5 0 -10 -18 -10 -40 0 -22 -3 -40 -8
-40 -4 0 -18 -20 -30 -44 -15 -28 -33 -47 -48 -50 -14 -4 -22 -11 -19 -16 3
-5 -8 -7 -27 -4 -118 19 -305 39 -543 59 -196 17 -458 25 -815 25 -675 -1
-1101 -31 -2015 -144 -168 -21 -509 -69 -865 -122 -52 -7 -126 -18 -165 -24
-38 -6 -81 -13 -95 -15 -14 -2 -56 -9 -95 -15 -38 -5 -113 -17 -165 -25 -52
-8 -142 -22 -200 -31 -58 -8 -145 -22 -195 -29 -554 -84 -933 -135 -1290 -175
-49 -6 -106 -12 -125 -15 -284 -38 -942 -82 -1350 -89 -138 -3 -795 12 -875
19 -100 10 -175 24 -172 34 1 3 -4 13 -11 21 -44 51 -52 66 -52 90 0 20 -6 29
-21 33 -14 4 -19 12 -17 24 3 10 -10 36 -29 60 -18 23 -33 46 -33 51 0 5 -7
12 -15 16 -8 3 -15 15 -15 26 0 11 -4 20 -9 20 -5 0 -11 8 -15 18 -3 9 -10 24
-15 32 -5 8 -24 46 -42 83 -18 37 -36 70 -41 73 -4 3 -8 18 -8 34 0 15 -5 30
-11 32 -11 4 -35 59 -46 106 -3 12 -9 22 -14 22 -5 0 -9 6 -9 14 0 8 -7 17
-16 20 -12 5 -15 14 -11 35 6 28 3 34 -43 88 -5 7 -10 17 -10 23 0 6 -6 20
-13 31 -9 17 -9 23 0 26 8 3 5 16 -10 41 -12 20 -25 39 -29 40 -4 2 -8 21 -8
43 0 21 -4 39 -10 39 -5 0 -10 7 -10 15 0 8 -4 23 -10 33 -26 46 -50 128 -50
172 0 39 -4 52 -20 60 -20 11 -28 40 -10 40 5 0 1 15 -10 33 -12 20 -20 50
-20 80 0 26 -4 47 -10 47 -5 0 -10 18 -10 40 0 22 -4 40 -10 40 -5 0 -10 19
-10 41 0 35 -2 39 -14 30 -9 -7 -17 -8 -20 -2 -3 5 0 11 6 13 11 4 11 14 0 51
-6 26 -12 61 -12 77 0 17 -4 30 -10 30 -6 0 -10 33 -10 80 0 47 -4 80 -10 80
-5 0 -10 18 -10 40 0 22 -4 40 -10 40 -6 0 -10 33 -10 80 0 44 -4 80 -8 80
-18 0 -27 246 -27 685 0 437 1 457 29 680 16 127 33 232 37 235 4 3 10 40 14
83 4 42 11 77 16 77 5 0 9 14 9 32 0 38 29 159 41 173 5 5 9 33 9 62 0 29 5
53 10 53 15 0 12 77 -2 83 -7 2 -9 8 -5 13 4 5 12 2 17 -6 5 -8 10 -12 12 -10
9 11 28 103 28 130 0 23 4 30 20 30 17 0 20 7 20 48 0 29 7 59 19 79 14 22 16
33 8 36 -9 3 -9 9 0 26 7 11 13 28 13 36 0 8 9 15 20 15 17 0 20 7 20 48 0 47
29 112 50 112 5 0 10 15 10 34 0 47 44 160 64 164 10 2 16 14 16 31 0 15 9 38
20 51 11 13 20 34 20 47 0 16 7 27 20 30 14 4 20 14 20 33 0 15 9 37 20 50 11
13 20 33 20 46 0 13 9 28 20 34 11 6 20 21 20 34 0 13 9 33 20 46 11 13 20 34
20 47 0 15 7 27 18 29 11 3 24 27 36 65 11 34 24 59 32 59 8 0 14 7 14 15 0 8
14 28 30 43 17 16 30 34 30 41 0 6 9 20 20 31 11 11 20 29 20 40 0 10 9 24 20
30 11 6 20 17 20 25 0 8 5 15 10 15 6 0 10 7 10 15 0 8 14 28 30 43 16 16 30
37 30 46 0 9 5 16 10 16 6 0 10 7 10 16 0 9 18 38 40 64 22 26 40 52 40 58 0
5 9 12 21 15 11 3 23 15 26 26 3 12 12 21 19 21 8 0 14 9 14 19 0 22 26 36 34
18 2 -7 5 0 5 16 1 15 6 27 11 27 6 0 10 7 10 16 0 9 6 22 14 28 8 6 17 22 21
36 5 20 4 22 -5 10 -13 -18 -5 22 16 83 7 21 9 35 4 32 -11 -7 -14 8 -3 19 8
7 13 27 18 66 2 14 4 25 5 25 1 0 3 7 5 16 1 9 6 27 10 39 5 17 4 21 -5 15 -9
-5 -11 -4 -6 4 4 6 12 9 17 6 5 -4 10 6 11 22 2 47 3 50 17 67 7 9 10 16 6 16
-5 0 -1 8 8 18 13 15 14 21 4 32 -9 9 -9 11 0 6 7 -4 17 2 23 14 6 11 8 20 4
20 -4 0 0 8 8 18 9 9 30 44 47 76 35 67 76 120 138 184 23 23 39 42 35 42 -4
0 8 9 26 20 17 11 32 24 32 30 0 6 12 15 26 20 14 6 40 21 58 35 18 14 39 25
47 25 8 0 20 5 27 12 15 15 190 19 199 5 4 -6 1 -7 -8 -3 -8 4 -5 0 5 -8 11
-9 29 -14 40 -10 17 4 18 3 6 -5 -11 -8 -12 -11 -2 -11 18 0 72 -51 72 -67 0
-15 35 -35 44 -26 3 3 6 2 6 -3 0 -6 -5 -15 -10 -20 -7 -7 -6 -11 3 -11 9 0
14 11 13 31 -1 23 4 32 19 34 11 2 28 12 37 22 10 10 26 21 37 25 10 3 22 12
25 20 3 8 15 15 26 15 11 0 20 5 20 10 0 6 7 10 15 10 8 0 19 9 25 20 6 11 15
20 21 20 6 0 18 9 27 20 10 12 35 27 57 34 25 9 45 24 53 40 7 14 16 26 20 27
4 0 17 2 28 3 12 1 30 10 39 20 10 9 25 14 35 11 11 -3 22 0 27 9 8 15 103 66
122 66 6 0 11 7 11 15 0 8 9 15 20 15 11 0 20 5 20 10 0 6 9 10 21 10 16 0 20
-4 15 -17 -3 -10 13 3 37 28 44 48 58 56 150 84 31 10 57 22 57 26 0 11 54 37
125 61 33 11 83 28 110 38 28 11 76 27 108 36 33 10 57 22 57 30 0 8 8 14 18
14 9 0 26 7 36 15 14 10 22 12 26 4 8 -12 76 3 73 17 -1 5 19 7 43 5 27 -2 44
1 44 8 0 6 18 11 40 11 28 0 40 4 40 14 0 8 16 18 38 23 20 5 36 14 35 19 -2
13 80 4 90 -10 6 -7 7 -4 3 7 -3 10 0 17 7 17 8 0 6 4 -3 10 -9 6 -11 10 -3
10 7 0 11 6 9 13 -1 6 -1 9 1 5 7 -13 23 -9 23 5 0 8 11 19 23 24 18 9 24 8
24 -2 0 -7 -7 -12 -15 -11 -8 1 -17 -6 -20 -14 -3 -12 -2 -12 8 -3 7 6 19 9
26 6 8 -3 14 1 14 9 0 10 10 14 30 13 16 -1 27 2 24 7 -3 4 0 8 6 8 7 0 10 6
7 14 -8 20 23 13 39 -9 13 -17 14 -17 20 -1 4 9 13 15 20 12 8 -3 14 -2 14 3
0 8 57 25 74 22 5 -1 6 6 2 15 -5 14 -4 15 9 4 12 -10 15 -10 15 3 0 10 6 14
15 11 8 -4 15 -1 15 5 0 6 12 11 26 11 14 0 23 -4 19 -10z m39 -36 c3 -8 2
-13 -3 -10 -5 3 -11 -4 -14 -16 -4 -12 -9 -20 -12 -16 -5 5 14 58 21 58 1 0 5
-7 8 -16z m-379 -24 c-3 -5 -14 -10 -23 -9 -14 0 -13 2 3 9 27 11 27 11 20 0z
m3055 -236 c0 -8 -19 -13 -24 -6 -3 5 1 9 9 9 8 0 15 -2 15 -3z m-45 -84 c3
-6 -1 -7 -9 -4 -18 7 -21 14 -7 14 6 0 13 -4 16 -10z m462 -129 c8 7 13 8 13
1 0 -14 -28 -23 -35 -11 -4 5 -11 6 -17 3 -7 -5 -8 -2 -3 5 5 9 10 10 18 2 7
-7 14 -7 24 0z m-47 -70 c0 -5 -7 -11 -15 -15 -15 -5 -20 5 -8 17 9 10 23 9
23 -2z m384 -49 c3 -5 -1 -9 -9 -9 -8 0 -12 4 -9 9 3 4 7 8 9 8 2 0 6 -4 9 -8z
m-130 -92 c-6 -6 -10 -3 -10 10 0 13 4 16 10 10 7 -7 7 -13 0 -20z m-5637
-305 c0 -8 -4 -12 -9 -9 -5 3 -6 10 -3 15 9 13 12 11 12 -6z m6083 -45 c0 -5
-2 -10 -4 -10 -3 0 -8 5 -11 10 -3 6 -1 10 4 10 6 0 11 -4 11 -10z m1300
-1352 c0 -6 -6 -5 -15 2 -8 7 -15 14 -15 16 0 2 7 1 15 -2 8 -4 15 -11 15 -16z
m-9480 -1858 c0 -5 -4 -10 -10 -10 -5 0 -10 5 -10 10 0 6 5 10 10 10 6 0 10
-4 10 -10z m9821 -3624 c-19 -11 -21 -14 -7 -19 9 -4 16 -2 16 3 0 6 5 10 12
10 9 0 9 -3 0 -12 -14 -14 -53 -18 -45 -5 4 6 0 8 -10 4 -10 -3 -17 -3 -17 1
0 5 12 13 28 19 38 15 52 15 23 -1z m74 -14 c-3 -3 -11 0 -18 7 -9 10 -8 11 6
5 10 -3 15 -9 12 -12z m-2084 -275 c21 -14 41 -41 53 -70 18 -43 18 -52 7
-100 -28 -111 -104 -223 -208 -305 -62 -48 -198 -108 -278 -122 -59 -10 -155
-7 -177 6 -3 2 26 48 66 102 40 53 83 115 96 137 51 87 191 293 213 313 66 62
168 80 228 39z m-891 -120 c0 -2 -18 -55 -41 -118 -22 -63 -46 -132 -54 -154
-7 -22 -32 -92 -55 -155 -23 -63 -54 -151 -70 -195 -28 -80 -164 -463 -246
-695 -101 -281 -123 -365 -104 -400 22 -41 74 -17 156 73 81 89 149 207 201
351 55 151 90 249 143 396 22 63 49 135 58 160 l18 45 78 8 c85 8 291 59 337
82 46 24 48 18 24 -47 -25 -65 -49 -133 -180 -498 -42 -118 -88 -244 -101
-280 -27 -75 -39 -147 -30 -184 5 -22 12 -26 42 -26 28 0 45 9 85 47 97 91
166 215 245 438 122 349 201 566 208 572 3 3 43 9 88 14 87 8 154 19 276 46
40 8 75 13 77 11 3 -2 -9 -42 -26 -89 -16 -46 -43 -120 -59 -164 -15 -44 -48
-136 -73 -205 -166 -459 -166 -460 -174 -537 -7 -78 7 -88 74 -53 72 38 157
148 239 310 26 52 48 96 49 98 3 4 75 -28 75 -34 0 -12 -103 -198 -148 -269
-59 -92 -171 -207 -252 -260 -89 -58 -158 -79 -255 -79 -70 0 -85 3 -121 26
-47 31 -84 83 -84 121 0 15 9 50 20 79 17 45 17 49 2 28 -105 -149 -199 -235
-322 -294 -57 -27 -76 -31 -150 -31 -92 0 -131 14 -178 63 -32 35 -61 99 -62
137 l-1 30 -27 -35 c-168 -217 -388 -328 -554 -278 -51 15 -115 87 -123 137
-13 75 -16 76 -68 12 -108 -135 -258 -224 -393 -237 -120 -11 -192 23 -233
111 -40 86 -27 201 49 405 21 58 59 164 85 235 41 117 104 290 140 385 12 32
17 36 66 43 149 22 356 76 387 100 25 20 21 -2 -19 -114 -22 -63 -53 -150 -69
-194 -16 -44 -49 -136 -73 -205 -116 -322 -136 -382 -148 -439 -15 -76 -7
-111 25 -111 54 0 145 93 235 240 63 104 73 129 256 645 228 646 287 811 293
817 4 4 52 14 107 23 100 17 294 68 324 85 16 9 31 13 31 7z m-1656 -932
c-296 -880 -309 -920 -325 -995 -10 -42 -7 -98 7 -146 5 -19 -2 -24 -63 -45
-98 -33 -232 -34 -286 0 -55 34 -80 90 -80 176 0 72 13 120 112 405 22 63 74
214 116 335 42 121 87 252 99 290 13 39 33 90 44 115 11 25 33 74 48 110 15
36 33 80 41 98 29 68 -8 27 -68 -75 -54 -94 -489 -881 -587 -1063 -19 -36 -45
-83 -58 -106 l-24 -41 -142 -16 c-284 -34 -260 -33 -254 -6 3 13 10 94 16 179
16 234 38 549 49 700 12 154 14 246 5 238 -5 -6 -20 -65 -109 -443 -25 -104
-49 -203 -54 -220 -9 -28 -148 -459 -228 -708 -19 -59 -38 -107 -42 -107 -67
-2 -234 -39 -365 -81 -33 -10 -60 -19 -62 -19 -1 0 16 51 38 113 22 61 46 130
53 152 7 22 31 92 53 155 95 269 168 477 234 665 38 110 83 238 99 285 17 47
36 103 43 125 84 255 142 345 253 396 35 16 63 34 63 40 0 6 -7 8 -16 5 -9 -4
-37 -11 -63 -18 -142 -34 -270 -135 -409 -322 -30 -39 -57 -78 -62 -86 -22
-39 -122 86 -140 176 -40 194 94 353 338 399 96 19 165 19 267 1 163 -29 258
-71 392 -176 l71 -55 4 -320 5 -320 -44 -99 c-24 -54 -42 -101 -39 -103 2 -2
64 78 138 179 73 100 248 338 388 529 140 191 279 381 309 422 l54 74 86 6
c47 3 97 8 111 11 14 3 41 9 60 12 67 12 192 43 199 49 3 4 7 1 9 -7 1 -7
-126 -395 -284 -863z m736 804 c48 -24 104 -86 124 -137 59 -155 -71 -348
-250 -368 -93 -11 -212 53 -255 137 -28 57 -26 158 6 227 25 55 80 114 128
139 68 35 181 36 247 2z m-5257 -26 c-7 -2 -19 -2 -25 0 -7 3 -2 5 12 5 14 0
19 -2 13 -5z m-6 -19 c-3 -3 -12 -4 -19 -1 -8 3 -5 6 6 6 11 1 17 -2 13 -5z
m6643 -1904 c-19 -12 -50 -13 -50 -2 0 5 14 9 32 10 23 1 28 -2 18 -8z m47 4
c-3 -3 -12 -4 -19 -1 -8 3 -5 6 6 6 11 1 17 -2 13 -5z m-88 -50 c3 -3 -5 -3
-19 0 -107 25 -123 26 -156 14 -19 -6 -34 -15 -34 -19 0 -9 43 2 51 13 3 5 23
4 45 -1 33 -8 35 -9 11 -10 -16 -1 -26 -5 -22 -11 3 -5 0 -10 -8 -10 -7 0 -41
-11 -75 -25 -34 -14 -77 -25 -96 -25 -19 0 -36 -6 -39 -14 -6 -15 -77 -57
-125 -74 -22 -8 -32 -7 -35 1 -2 6 -11 8 -22 3 -16 -6 -17 -9 -5 -16 13 -8 13
-10 -1 -10 -8 0 -43 -11 -77 -25 -34 -14 -77 -25 -96 -25 -19 0 -38 -4 -41
-10 -3 -5 -22 -10 -41 -10 -19 0 -34 -4 -34 -10 0 -5 -18 -10 -40 -10 -22 0
-40 -4 -40 -10 0 -5 -18 -10 -40 -10 -22 0 -40 -4 -40 -10 0 -5 -18 -10 -40
-10 -22 0 -40 -3 -40 -8 0 -4 -39 -16 -87 -26 -49 -10 -105 -24 -126 -32 -20
-8 -71 -14 -111 -14 -41 0 -76 -4 -78 -8 -1 -5 -88 -19 -193 -32 -169 -21
-231 -24 -560 -24 -303 0 -399 3 -527 19 -87 10 -158 21 -158 24 0 4 -24 6
-52 5 -48 -1 -108 17 -108 32 0 4 17 4 38 0 31 -5 33 -4 13 5 -14 5 -38 7 -54
3 l-29 -6 28 -19 c35 -23 28 -25 -14 -3 -18 8 -41 13 -52 9 -29 -9 -25 4 6 15
30 12 62 18 134 24 30 3 69 10 85 14 17 5 45 8 63 7 17 -1 32 1 32 5 0 4 12 7
28 8 15 0 41 3 57 6 17 4 48 8 70 11 22 3 54 8 70 11 17 3 45 7 63 9 18 1 35
5 38 8 3 3 12 3 19 1 7 -3 22 -1 33 5 11 6 73 18 138 27 115 15 177 24 409 59
61 9 129 17 152 18 24 1 43 6 43 11 0 4 18 6 40 4 22 -2 40 0 40 5 0 4 8 7 18
6 9 -1 24 0 32 4 8 3 53 10 100 16 47 6 119 16 160 22 41 6 95 12 120 13 25 0
47 4 50 7 3 4 34 10 70 14 115 12 144 15 210 24 59 8 144 18 315 37 67 7 146
14 220 18 28 1 63 6 79 11 21 6 27 5 22 -4 -10 -15 13 -14 43 3 20 11 34 10
94 -5 39 -11 73 -22 76 -25z m-9 31 l45 -15 -50 6 c-54 6 -97 23 -60 24 11 0
40 -7 65 -15z m90 -10 c0 -2 -6 -5 -13 -8 -8 -3 -14 1 -14 8 0 7 6 11 14 8 7
-3 13 -6 13 -8z m-123 -31 c-3 -3 -12 -4 -19 -1 -8 3 -5 6 6 6 11 1 17 -2 13
-5z m-257 -89 c0 -2 -9 -9 -20 -15 -16 -9 -20 -8 -20 5 0 8 9 15 20 15 11 0
20 -2 20 -5z m-653 -241 c-3 -3 -12 -4 -19 -1 -8 3 -5 6 6 6 11 1 17 -2 13 -5z
m-2257 -44 c0 -5 -5 -10 -11 -10 -5 0 -7 5 -4 10 3 6 8 10 11 10 2 0 4 -4 4
-10z m40 -5 c0 -8 -8 -15 -17 -14 -11 0 -13 3 -5 6 6 2 10 9 6 14 -3 5 0 9 5
9 6 0 11 -7 11 -15z m80 -15 c8 -5 11 -10 5 -10 -5 0 -17 5 -25 10 -8 5 -10
10 -5 10 6 0 17 -5 25 -10z m-43 -6 c-3 -3 -12 -4 -19 -1 -8 3 -5 6 6 6 11 1
17 -2 13 -5z"/>
<path d="M5143 11523 c4 -3 1 -13 -6 -22 -11 -14 -10 -14 5 -2 16 12 16 31 1
31 -4 0 -3 -3 0 -7z"/>
<path d="M5366 11495 c-4 -11 -2 -14 6 -9 7 5 9 2 6 -7 -4 -10 2 -15 20 -17
22 -2 24 0 12 10 -8 7 -20 19 -26 26 -9 10 -13 9 -18 -3z"/>
<path d="M5425 11490 c-3 -5 -1 -10 4 -10 6 0 11 5 11 10 0 6 -2 10 -4 10 -3
0 -8 -4 -11 -10z"/>
<path d="M5439 11457 c5 -5 26 -7 47 -5 l39 3 -47 5 c-26 3 -43 1 -39 -3z"/>
<path d="M4900 11366 c16 -16 12 -26 -7 -19 -17 6 -17 6 0 -11 12 -13 15 -22
8 -30 -8 -9 -7 -13 3 -13 9 0 13 8 10 24 -4 22 -3 23 18 12 l23 -11 -23 21
c-12 12 -20 26 -18 30 3 4 -2 8 -10 8 -10 0 -11 -4 -4 -11z"/>
<path d="M4938 11373 c6 -2 9 -10 6 -15 -4 -7 -2 -8 5 -4 13 9 5 26 -12 25 -9
0 -8 -2 1 -6z"/>
<path d="M8110 11265 c-7 -9 -8 -15 -2 -15 5 0 12 7 16 15 3 8 4 15 2 15 -2 0
-9 -7 -16 -15z"/>
<path d="M7941 11147 c2 -1 13 -9 24 -17 19 -14 19 -14 6 3 -7 9 -18 17 -24
17 -6 0 -8 -1 -6 -3z"/>
<path d="M4200 11136 c0 -9 39 -13 51 -5 10 6 4 9 -18 9 -18 0 -33 -2 -33 -4z"/>
<path d="M7920 11137 c0 -3 12 -12 26 -22 15 -9 23 -12 20 -6 -7 11 -46 35
-46 28z"/>
<path d="M7926 11102 c-3 -5 1 -9 9 -9 8 0 12 4 9 9 -3 4 -7 8 -9 8 -2 0 -6
-4 -9 -8z"/>
<path d="M8420 11015 c-7 -9 -8 -15 -2 -15 5 0 12 7 16 15 3 8 4 15 2 15 -2 0
-9 -7 -16 -15z"/>
<path d="M8415 10980 c3 -5 8 -10 11 -10 2 0 4 5 4 10 0 6 -5 10 -11 10 -5 0
-7 -4 -4 -10z"/>
<path d="M8390 10960 c0 -5 5 -10 11 -10 5 0 7 5 4 10 -3 6 -8 10 -11 10 -2 0
-4 -4 -4 -10z"/>
<path d="M8355 10931 c-3 -5 0 -13 7 -18 16 -10 42 -14 33 -5 -4 4 -12 7 -18
7 -7 1 -11 6 -9 13 2 14 -4 16 -13 3z"/>
<path d="M8683 10827 c14 -11 15 -16 5 -20 -9 -4 -9 -6 -1 -6 23 -2 23 18 1
29 -21 10 -22 10 -5 -3z"/>
<path d="M3520 10805 c0 -13 4 -14 20 -5 11 6 20 13 20 15 0 3 -9 5 -20 5 -11
0 -20 -7 -20 -15z"/>
<path d="M8645 10810 c-3 -6 1 -7 9 -4 18 7 21 14 7 14 -6 0 -13 -4 -16 -10z"/>
<path d="M8681 10774 c0 -11 3 -14 6 -6 3 7 2 16 -1 19 -3 4 -6 -2 -5 -13z"/>
<path d="M8662 10739 c1 -12 10 -24 18 -26 12 -4 13 -3 1 5 -7 5 -11 14 -7 20
3 6 1 14 -5 17 -7 5 -9 -1 -7 -16z"/>
<path d="M8770 10566 c0 -2 8 -10 18 -17 15 -13 16 -12 3 4 -13 16 -21 21 -21
13z"/>
<path d="M9160 10566 c0 -2 7 -6 15 -10 8 -3 15 -1 15 4 0 6 -7 10 -15 10 -8
0 -15 -2 -15 -4z"/>
<path d="M2660 10523 c-36 -14 -98 -112 -84 -134 4 -7 3 -9 -4 -5 -10 6 -19
-13 -27 -53 -2 -9 -4 -17 -5 -18 -4 -5 -17 -68 -24 -113 -4 -31 10 -51 32 -43
14 4 14 3 3 -5 -12 -9 -12 -13 -2 -26 23 -28 1 -17 -24 12 l-24 27 5 -35 c3
-19 9 -64 13 -100 l8 -65 2 65 c1 46 4 61 11 50 5 -8 10 -10 10 -4 0 20 166
184 186 184 25 0 69 46 53 55 -6 4 -9 16 -6 26 3 11 1 19 -4 19 -5 0 -9 -5 -9
-12 0 -6 -3 -8 -6 -5 -9 9 16 38 27 31 22 -13 6 5 -17 21 -26 16 -26 16 -20
-7 7 -22 7 -22 -8 2 -10 17 -11 30 -5 42 7 12 6 18 -2 18 -8 0 -8 4 -1 13 7 8
7 17 -2 27 -10 13 -52 41 -58 39 -2 0 -10 -3 -18 -6z m-100 -338 c14 -19 14
-19 -2 -6 -10 7 -18 18 -18 24 0 6 1 8 3 6 1 -2 9 -13 17 -24z"/>
<path d="M9090 10515 c0 -10 29 -24 34 -17 3 6 -3 12 -14 15 -11 3 -20 4 -20
2z"/>
<path d="M9185 10480 c3 -5 11 -10 16 -10 6 0 7 5 4 10 -3 6 -11 10 -16 10 -6
0 -7 -4 -4 -10z"/>
<path d="M2756 10452 c2 -2 -2 -14 -8 -26 -6 -11 -7 -18 -3 -14 5 4 15 2 23
-5 13 -10 14 -8 7 13 -4 14 -11 28 -15 31 -4 4 -5 4 -4 1z"/>
<path d="M2802 10261 c0 -17 1 -31 3 -31 7 0 12 39 5 49 -4 7 -7 -1 -8 -18z"/>
<path d="M9416 10248 c3 -5 10 -6 15 -3 13 9 11 12 -6 12 -8 0 -12 -4 -9 -9z"/>
<path d="M9325 10161 c-9 -15 15 -25 28 -12 9 9 7 10 -7 5 -13 -5 -17 -4 -12
4 4 7 5 12 2 12 -3 0 -7 -4 -11 -9z"/>
<path d="M2551 10044 c0 -11 3 -14 6 -6 3 7 2 16 -1 19 -3 4 -6 -2 -5 -13z"/>
<path d="M9661 9834 c0 -11 3 -14 6 -6 3 7 2 16 -1 19 -3 4 -6 -2 -5 -13z"/>
<path d="M9690 9840 c-9 -6 -10 -10 -3 -10 6 0 15 5 18 10 8 12 4 12 -15 0z"/>
<path d="M9884 9768 c10 -6 22 -6 26 -2 5 5 -3 10 -18 11 -22 1 -24 0 -8 -9z"/>
<path d="M9888 9744 c-4 -3 -4 -13 -1 -22 5 -11 3 -13 -7 -7 -9 5 -11 4 -6 -3
9 -15 49 4 43 21 -4 13 -21 20 -29 11z m22 -14 c0 -5 -2 -10 -4 -10 -3 0 -8 5
-11 10 -3 6 -1 10 4 10 6 0 11 -4 11 -10z"/>
<path d="M9927 9686 c5 -15 3 -17 -8 -11 -12 7 -12 6 1 -9 13 -17 15 -17 33 5
14 17 20 20 26 10 5 -8 11 -9 15 -3 3 5 -1 13 -10 16 -25 10 -34 7 -34 -11 0
-15 -2 -14 -15 3 -15 18 -15 18 -8 0z"/>
<path d="M9970 9640 c6 -11 13 -20 16 -20 2 0 0 9 -6 20 -6 11 -13 20 -16 20
-2 0 0 -9 6 -20z"/>
<path d="M6090 9545 c-115 -20 -142 -29 -221 -74 -175 -99 -222 -149 -289
-302 -47 -106 -59 -178 -60 -354 0 -154 -3 -162 -43 -158 -48 5 -21 -5 58 -21
39 -7 172 -41 297 -74 264 -71 307 -78 356 -64 54 15 130 30 187 36 49 6 49 6
20 -8 -35 -17 -28 -21 11 -6 19 8 41 6 84 -6 32 -9 66 -14 76 -11 13 3 9 5
-11 7 -16 1 -39 6 -50 11 -14 6 -5 7 30 4 43 -4 46 -3 20 5 -16 6 -46 8 -65 5
-19 -3 -41 -1 -48 3 -9 6 14 11 60 15 40 4 133 17 207 29 92 16 136 19 138 12
2 -6 16 -9 31 -7 16 3 22 1 15 -4 -6 -5 10 -9 40 -9 51 -1 52 -1 22 12 -59 26
51 19 350 -20 55 -8 153 -13 218 -12 65 1 120 -1 122 -5 6 -9 -23 -22 -50 -24
-11 0 -26 -4 -32 -8 -8 -5 -13 -3 -13 5 0 9 -3 10 -8 2 -11 -18 -102 -28 -102
-12 0 10 -2 10 -9 -1 -5 -8 -16 -11 -24 -8 -8 3 -20 0 -26 -6 -8 -8 -11 -8
-11 0 0 9 -8 9 -29 2 -15 -5 -51 -8 -80 -6 -28 2 -54 1 -56 -4 -3 -4 -23 -6
-45 -4 -22 2 -40 0 -40 -4 0 -5 -21 -12 -47 -15 -27 -4 -57 -9 -68 -11 -11 -3
-38 -6 -61 -8 -22 -2 -45 -7 -51 -10 -6 -4 -32 -9 -59 -12 -27 -2 -65 -10 -84
-16 -19 -6 -53 -13 -75 -16 -22 -2 -56 -9 -75 -14 -19 -5 -44 -9 -55 -8 -16 0
-14 4 10 15 25 12 26 14 5 9 -14 -4 -54 -10 -90 -14 -64 -8 -64 -8 -16 -10 27
0 47 -3 45 -5 -12 -12 -72 -15 -91 -5 -12 7 -18 7 -14 1 3 -6 -7 -13 -23 -17
-36 -8 -211 -3 -216 5 -2 4 -19 6 -37 5 -18 -1 -46 2 -63 7 -16 5 -55 11 -85
14 -67 6 -162 33 -172 48 -6 8 -8 7 -8 -1 0 -7 -7 -13 -15 -13 -8 0 -15 4 -15
9 0 7 -34 16 -95 26 -5 1 -22 5 -36 9 -14 4 -32 9 -40 10 -8 2 -31 11 -53 20
-21 10 -45 15 -53 12 -9 -4 -11 -2 -7 6 5 7 2 9 -8 5 -9 -3 -19 -3 -22 1 -7 7
-25 11 -74 19 -47 8 -34 28 17 27 58 -1 30 12 -39 19 -30 3 -43 3 -28 -1 22
-6 25 -10 15 -22 -13 -16 -51 -24 -41 -9 5 9 -38 14 -83 10 -15 -1 -23 4 -23
14 0 10 9 15 27 15 33 0 28 5 -13 13 -29 6 -31 4 -26 -20 5 -24 3 -25 -24 -19
-32 8 -44 9 -121 6 -68 -3 -121 9 -102 22 10 6 7 8 -11 6 -14 -2 -24 -9 -23
-15 3 -14 -63 -22 -184 -22 -89 0 -92 1 -80 20 15 24 22 26 122 38 44 6 114
15 155 21 41 7 147 16 235 20 l160 9 -165 -4 c-156 -3 -354 -24 -465 -49 -41
-9 -51 -16 -60 -39 -8 -24 -6 -31 10 -43 25 -18 97 -18 159 1 69 21 345 8 516
-24 60 -12 261 -64 363 -95 251 -75 466 -104 657 -86 116 11 313 36 338 44 10
3 55 10 102 15 97 12 235 36 330 57 36 8 94 14 129 14 35 0 91 4 125 10 33 5
108 14 165 20 127 14 153 24 149 59 l-3 26 -135 2 c-129 2 -236 11 -419 35
-47 6 -119 8 -162 4 -65 -5 -78 -4 -83 10 -3 8 -6 101 -6 206 0 301 -32 398
-179 547 -58 59 -94 86 -154 115 -150 72 -267 88 -427 61z m265 -14 c199 -54
342 -162 419 -316 33 -66 62 -181 37 -145 -8 11 -9 2 -5 -32 5 -37 3 -54 -12
-75 -10 -16 -17 -32 -16 -37 2 -5 0 -16 -4 -25 -5 -12 -9 -9 -15 14 -6 23 -7
18 -5 -22 2 -36 -1 -57 -10 -64 -8 -6 -14 -8 -14 -3 -1 5 -7 -6 -15 -25 -17
-39 16 -38 -285 -1 -195 24 -549 30 -675 11 -38 -6 -73 -11 -77 -11 -5 0 -9
17 -10 38 l-1 37 -4 -35 c-5 -36 -17 -50 -45 -50 -14 0 -15 4 -7 29 7 21 7 36
0 50 -6 11 -11 35 -12 53 0 18 -3 27 -6 20 -8 -20 -23 -3 -23 28 0 16 -5 32
-11 36 -20 12 -3 89 36 171 38 79 137 213 157 213 6 0 19 7 27 15 51 45 193
109 276 122 17 3 50 9 75 13 78 13 153 10 225 -9z"/>
<path d="M5935 9400 c-10 -11 -16 -22 -14 -24 2 -2 12 7 22 20 22 29 17 32 -8
4z"/>
<path d="M6572 9380 c14 -43 18 -49 18 -24 0 11 -7 29 -15 40 -13 17 -14 16
-3 -16z"/>
<path d="M6481 9395 c0 -5 6 -21 14 -35 8 -14 14 -20 14 -15 0 6 -6 21 -14 35
-8 14 -14 21 -14 15z"/>
<path d="M6521 9395 c1 -19 18 -51 18 -35 0 8 -4 22 -9 30 -5 8 -9 11 -9 5z"/>
<path d="M6451 9374 c0 -11 3 -14 6 -6 3 7 2 16 -1 19 -3 4 -6 -2 -5 -13z"/>
<path d="M6640 9360 c6 -11 13 -20 16 -20 2 0 0 9 -6 20 -6 11 -13 20 -16 20
-2 0 0 -9 6 -20z"/>
<path d="M6541 9278 c0 -22 1 -22 8 -3 7 18 9 17 19 -10 6 -17 11 -24 11 -17
1 19 -18 52 -29 52 -6 0 -10 -10 -9 -22z"/>
<path d="M6661 9280 c0 -8 4 -24 9 -35 5 -13 9 -14 9 -5 0 8 -4 24 -9 35 -5
13 -9 14 -9 5z"/>
<path d="M5835 9249 c-9 -17 -15 -33 -13 -35 3 -2 12 12 21 31 21 43 13 47 -8
4z"/>
<path d="M5875 9249 c-9 -17 -15 -33 -13 -35 3 -2 12 12 21 31 21 43 13 47 -8
4z"/>
<path d="M6697 9239 c4 -13 8 -18 11 -10 2 7 -1 18 -6 23 -8 8 -9 4 -5 -13z"/>
<path d="M6460 9245 c0 -5 5 -17 10 -25 5 -8 10 -10 10 -5 0 6 -5 17 -10 25
-5 8 -10 11 -10 5z"/>
<path d="M6496 9237 c3 -10 9 -15 12 -12 3 3 0 11 -7 18 -10 9 -11 8 -5 -6z"/>
<path d="M6667 9110 c3 -25 7 -47 9 -49 8 -9 2 55 -6 74 -6 13 -7 5 -3 -25z"/>
<path d="M5716 9123 c-6 -14 -5 -15 5 -6 7 7 10 15 7 18 -3 3 -9 -2 -12 -12z"/>
<path d="M6623 9100 c0 -25 2 -35 4 -22 2 12 2 32 0 45 -2 12 -4 2 -4 -23z"/>
<path d="M6692 9125 c0 -11 4 -33 8 -50 7 -27 8 -27 8 -5 0 14 -4 36 -8 50 -6
20 -8 21 -8 5z"/>
<path d="M5761 9114 c0 -11 3 -14 6 -6 3 7 2 16 -1 19 -3 4 -6 -2 -5 -13z"/>
<path d="M5786 9113 c-6 -14 -5 -15 5 -6 7 7 10 15 7 18 -3 3 -9 -2 -12 -12z"/>
<path d="M5866 9115 c-9 -26 -7 -32 5 -12 6 10 9 21 6 23 -2 3 -7 -2 -11 -11z"/>
<path d="M6031 9114 c0 -11 3 -14 6 -6 3 7 2 16 -1 19 -3 4 -6 -2 -5 -13z"/>
<path d="M6172 9110 c0 -14 2 -19 5 -12 2 6 2 18 0 25 -3 6 -5 1 -5 -13z"/>
<path d="M6202 9105 c0 -16 2 -22 5 -12 2 9 2 23 0 30 -3 6 -5 -1 -5 -18z"/>
<path d="M6491 9120 c0 -8 4 -22 9 -30 12 -18 12 -2 0 25 -6 13 -9 15 -9 5z"/>
<path d="M5606 9095 c-9 -26 -7 -32 5 -12 6 10 9 21 6 23 -2 3 -7 -2 -11 -11z"/>
<path d="M5635 9099 c-4 -6 -5 -12 -2 -15 2 -3 7 2 10 11 7 17 1 20 -8 4z"/>
<path d="M6571 9094 c0 -11 3 -14 6 -6 3 7 2 16 -1 19 -3 4 -6 -2 -5 -13z"/>
<path d="M6772 9080 c0 -19 2 -27 5 -17 2 9 2 25 0 35 -3 9 -5 1 -5 -18z"/>
<path d="M6542 9080 c0 -14 2 -19 5 -12 2 6 2 18 0 25 -3 6 -5 1 -5 -13z"/>
<path d="M6741 9074 c0 -11 3 -14 6 -6 3 7 2 16 -1 19 -3 4 -6 -2 -5 -13z"/>
<path d="M5746 9018 c-3 -13 -5 -34 -5 -48 1 -15 5 -7 10 19 9 47 6 68 -5 29z"/>
<path d="M5692 8995 c0 -16 2 -22 5 -12 2 9 2 23 0 30 -3 6 -5 -1 -5 -18z"/>
<path d="M5781 9004 c0 -11 3 -14 6 -6 3 7 2 16 -1 19 -3 4 -6 -2 -5 -13z"/>
<path d="M5852 9000 c0 -14 2 -19 5 -12 2 6 2 18 0 25 -3 6 -5 1 -5 -13z"/>
<path d="M5816 8995 c-3 -9 -6 -24 -5 -33 0 -9 5 -4 10 12 9 32 6 48 -5 21z"/>
<path d="M5652 8980 c0 -14 2 -19 5 -12 2 6 2 18 0 25 -3 6 -5 1 -5 -13z"/>
<path d="M5621 8974 c0 -11 3 -14 6 -6 3 7 2 16 -1 19 -3 4 -6 -2 -5 -13z"/>
<path d="M6552 8965 c0 -16 2 -22 5 -12 2 9 2 23 0 30 -3 6 -5 -1 -5 -18z"/>
<path d="M6522 8950 c0 -19 2 -27 5 -17 2 9 2 25 0 35 -3 9 -5 1 -5 -18z"/>
<path d="M6631 8970 c0 -8 4 -22 9 -30 12 -18 12 -2 0 25 -6 13 -9 15 -9 5z"/>
<path d="M6702 8960 c0 -14 2 -19 5 -12 2 6 2 18 0 25 -3 6 -5 1 -5 -13z"/>
<path d="M6602 8945 c0 -16 2 -22 5 -12 2 9 2 23 0 30 -3 6 -5 -1 -5 -18z"/>
<path d="M6673 8935 c0 -22 2 -30 4 -17 2 12 2 30 0 40 -3 9 -5 -1 -4 -23z"/>
<path d="M5611 8924 c0 -11 3 -14 6 -6 3 7 2 16 -1 19 -3 4 -6 -2 -5 -13z"/>
<path d="M5773 8875 c0 -22 2 -30 4 -17 2 12 2 30 0 40 -3 9 -5 -1 -4 -23z"/>
<path d="M5807 8881 c-4 -17 -3 -21 5 -13 5 5 8 16 6 23 -3 8 -7 3 -11 -10z"/>
<path d="M5962 8875 c0 -16 2 -22 5 -12 2 9 2 23 0 30 -3 6 -5 -1 -5 -18z"/>
<path d="M5851 8874 c0 -11 3 -14 6 -6 3 7 2 16 -1 19 -3 4 -6 -2 -5 -13z"/>
<path d="M6152 8865 c0 -16 2 -22 5 -12 2 9 2 23 0 30 -3 6 -5 -1 -5 -18z"/>
<path d="M6312 8860 c0 -14 2 -19 5 -12 2 6 2 18 0 25 -3 6 -5 1 -5 -13z"/>
<path d="M6492 8835 c0 -16 2 -22 5 -12 2 9 2 23 0 30 -3 6 -5 -1 -5 -18z"/>
<path d="M6452 8830 c0 -14 2 -19 5 -12 2 6 2 18 0 25 -3 6 -5 1 -5 -13z"/>
<path d="M6542 8830 c0 -14 2 -19 5 -12 2 6 2 18 0 25 -3 6 -5 1 -5 -13z"/>
<path d="M6652 8825 c0 -16 2 -22 5 -12 2 9 2 23 0 30 -3 6 -5 -1 -5 -18z"/>
<path d="M6682 8825 c0 -16 2 -22 5 -12 2 9 2 23 0 30 -3 6 -5 -1 -5 -18z"/>
<path d="M10080 9450 c-9 -6 -10 -10 -3 -10 6 0 15 5 18 10 8 12 4 12 -15 0z"/>
<path d="M10115 9451 c-3 -5 0 -13 6 -17 8 -5 9 -3 4 6 -6 9 -1 10 16 5 19 -5
21 -4 9 4 -19 13 -27 14 -35 2z"/>
<path d="M10195 9440 c-19 -8 -19 -9 3 -9 12 -1 22 4 22 9 0 6 -1 10 -2 9 -2
0 -12 -4 -23 -9z"/>
<path d="M10210 9414 c0 -3 7 -12 15 -20 13 -13 15 -13 15 -1 0 8 -7 17 -15
21 -8 3 -15 3 -15 0z"/>
<path d="M10084 9292 c4 -3 14 -7 22 -8 9 -1 13 0 10 4 -4 3 -14 7 -22 8 -9 1
-13 0 -10 -4z"/>
<path d="M10433 9214 c0 -8 3 -14 6 -14 8 0 37 19 31 21 -3 0 -12 2 -21 4 -9
1 -16 -4 -16 -11z"/>
<path d="M10455 9100 c-3 -5 -1 -10 4 -10 6 0 11 5 11 10 0 6 -2 10 -4 10 -3
0 -8 -4 -11 -10z"/>
<path d="M10446 9052 c-2 -4 4 -8 14 -8 10 0 16 4 14 8 -3 4 -9 8 -14 8 -5 0
-11 -4 -14 -8z"/>
<path d="M10458 9012 c4 -11 1 -14 -10 -10 -8 4 -15 1 -15 -7 0 -10 5 -11 17
-5 22 12 32 37 15 37 -8 0 -11 -7 -7 -15z"/>
<path d="M10495 8990 c3 -5 8 -10 11 -10 2 0 4 5 4 10 0 6 -5 10 -11 10 -5 0
-7 -4 -4 -10z"/>
<path d="M1620 8810 c0 -5 5 -10 10 -10 6 0 10 5 10 10 0 6 -4 10 -10 10 -5 0
-10 -4 -10 -10z"/>
<path d="M1601 8754 c0 -11 3 -14 6 -6 3 7 2 16 -1 19 -3 4 -6 -2 -5 -13z"/>
<path d="M1545 8670 c-3 -5 1 -10 10 -10 9 0 13 5 10 10 -3 6 -8 10 -10 10 -2
0 -7 -4 -10 -10z"/>
<path d="M5318 8653 c7 -3 16 -2 19 1 4 3 -2 6 -13 5 -11 0 -14 -3 -6 -6z"/>
<path d="M5360 8630 c-13 -9 -13 -10 0 -11 47 -6 98 -4 87 3 -6 4 -28 5 -47 2
-26 -4 -31 -3 -20 5 19 13 0 14 -20 1z"/>
<path d="M5248 8623 c7 -3 16 -2 19 1 4 3 -2 6 -13 5 -11 0 -14 -3 -6 -6z"/>
<path d="M5498 8623 c7 -3 16 -2 19 1 4 3 -2 6 -13 5 -11 0 -14 -3 -6 -6z"/>
<path d="M5003 8613 c9 -2 23 -2 30 0 6 3 -1 5 -18 5 -16 0 -22 -2 -12 -5z"/>
<path d="M5108 8613 c7 -3 16 -2 19 1 4 3 -2 6 -13 5 -11 0 -14 -3 -6 -6z"/>
<path d="M5298 8613 c7 -3 16 -2 19 1 4 3 -2 6 -13 5 -11 0 -14 -3 -6 -6z"/>
<path d="M4878 8603 c6 -2 18 -2 25 0 6 3 1 5 -13 5 -14 0 -19 -2 -12 -5z"/>
<path d="M5238 8603 c6 -2 18 -2 25 0 6 3 1 5 -13 5 -14 0 -19 -2 -12 -5z"/>
<path d="M4993 8593 c9 -2 23 -2 30 0 6 3 -1 5 -18 5 -16 0 -22 -2 -12 -5z"/>
<path d="M4798 8573 c7 -3 16 -2 19 1 4 3 -2 6 -13 5 -11 0 -14 -3 -6 -6z"/>
<path d="M5459 8568 c21 -6 37 -6 43 0 6 6 -7 10 -34 10 l-43 0 34 -10z"/>
<path d="M5535 8570 c-13 -5 -14 -9 -5 -9 8 0 24 4 35 9 13 5 14 9 5 9 -8 0
-24 -4 -35 -9z"/>
<path d="M6778 8573 c7 -3 16 -2 19 1 4 3 -2 6 -13 5 -11 0 -14 -3 -6 -6z"/>
<path d="M6998 8553 c6 -2 18 -2 25 0 6 3 1 5 -13 5 -14 0 -19 -2 -12 -5z"/>
<path d="M5453 8543 c9 -2 23 -2 30 0 6 3 -1 5 -18 5 -16 0 -22 -2 -12 -5z"/>
<path d="M5708 8543 c7 -3 16 -2 19 1 4 3 -2 6 -13 5 -11 0 -14 -3 -6 -6z"/>
<path d="M6818 8543 c7 -3 16 -2 19 1 4 3 -2 6 -13 5 -11 0 -14 -3 -6 -6z"/>
<path d="M7078 8543 c7 -3 16 -2 19 1 4 3 -2 6 -13 5 -11 0 -14 -3 -6 -6z"/>
<path d="M7168 8543 c12 -2 30 -2 40 0 9 3 -1 5 -23 4 -22 0 -30 -2 -17 -4z"/>
<path d="M7478 8543 c12 -2 32 -2 45 0 12 2 2 4 -23 4 -25 0 -35 -2 -22 -4z"/>
<path d="M5515 8530 c27 -12 43 -12 25 0 -8 5 -22 9 -30 9 -10 0 -8 -3 5 -9z"/>
<path d="M6860 8530 c8 -5 22 -10 30 -10 13 0 13 1 0 10 -8 5 -22 10 -30 10
-13 0 -13 -1 0 -10z"/>
<path d="M7320 8530 c-10 -6 -2 -7 25 -3 49 7 58 13 19 13 -16 0 -36 -5 -44
-10z"/>
<path d="M7413 8533 c9 -2 23 -2 30 0 6 3 -1 5 -18 5 -16 0 -22 -2 -12 -5z"/>
<path d="M5660 8520 c-18 -12 -2 -12 25 0 13 6 15 9 5 9 -8 0 -22 -4 -30 -9z"/>
<path d="M7175 8520 c-28 -7 -28 -8 -5 -9 14 0 32 4 40 9 17 11 8 11 -35 0z"/>
<path d="M5700 8510 c-9 -6 -10 -10 -3 -10 6 0 15 5 18 10 8 12 4 12 -15 0z"/>
<path d="M6938 8513 c7 -3 16 -2 19 1 4 3 -2 6 -13 5 -11 0 -14 -3 -6 -6z"/>
<path d="M5620 8500 c8 -5 24 -10 34 -10 26 0 18 6 -19 14 -22 5 -26 4 -15 -4z"/>
<path d="M6898 8503 c7 -3 16 -2 19 1 4 3 -2 6 -13 5 -11 0 -14 -3 -6 -6z"/>
<path d="M7108 8503 c6 -2 18 -2 25 0 6 3 1 5 -13 5 -14 0 -19 -2 -12 -5z"/>
<path d="M5698 8483 c7 -3 16 -2 19 1 4 3 -2 6 -13 5 -11 0 -14 -3 -6 -6z"/>
<path d="M6168 8473 c7 -3 16 -2 19 1 4 3 -2 6 -13 5 -11 0 -14 -3 -6 -6z"/>
<path d="M6925 8470 l-40 -7 40 -1 c22 0 49 3 60 8 l20 9 -20 -1 c-11 -1 -38
-4 -60 -8z"/>
<path d="M6318 8463 c7 -3 16 -2 19 1 4 3 -2 6 -13 5 -11 0 -14 -3 -6 -6z"/>
<path d="M5788 8453 c6 -2 18 -2 25 0 6 3 1 5 -13 5 -14 0 -19 -2 -12 -5z"/>
<path d="M5838 8443 c7 -3 16 -2 19 1 4 3 -2 6 -13 5 -11 0 -14 -3 -6 -6z"/>
<path d="M6213 8443 c9 -2 23 -2 30 0 6 3 -1 5 -18 5 -16 0 -22 -2 -12 -5z"/>
<path d="M6323 8443 c9 -2 23 -2 30 0 6 3 -1 5 -18 5 -16 0 -22 -2 -12 -5z"/>
<path d="M6778 8443 c7 -3 16 -2 19 1 4 3 -2 6 -13 5 -11 0 -14 -3 -6 -6z"/>
<path d="M6738 8433 c7 -3 16 -2 19 1 4 3 -2 6 -13 5 -11 0 -14 -3 -6 -6z"/>
<path d="M6338 8423 c6 -2 18 -2 25 0 6 3 1 5 -13 5 -14 0 -19 -2 -12 -5z"/>
<path d="M6620 8410 c-35 -7 -35 -7 -5 -9 17 0 37 4 45 9 17 11 11 11 -40 0z"/>
<path d="M6013 8403 c9 -2 23 -2 30 0 6 3 -1 5 -18 5 -16 0 -22 -2 -12 -5z"/>
<path d="M6370 8400 c14 -4 34 -8 45 -8 16 0 15 2 -5 8 -14 4 -34 8 -45 8 -16
0 -15 -2 5 -8z"/>
<path d="M6478 8393 c7 -3 16 -2 19 1 4 3 -2 6 -13 5 -11 0 -14 -3 -6 -6z"/>
<path d="M6133 8383 c9 -2 25 -2 35 0 9 3 1 5 -18 5 -19 0 -27 -2 -17 -5z"/>
<path d="M6605 8188 c-287 -12 -1663 -15 -1739 -5 l-59 9 6 -129 c7 -122 29
-415 32 -420 1 -2 28 11 59 28 50 27 65 31 110 26 64 -7 224 -59 391 -127 69
-28 234 -88 255 -93 14 -3 45 -12 70 -21 159 -54 292 -80 393 -75 47 3 61 0
59 -10 -1 -7 2 -10 8 -6 6 3 8 11 5 16 -4 5 0 9 8 9 8 0 23 12 33 28 9 15 28
36 41 47 13 11 23 26 23 33 0 6 6 9 13 6 8 -3 20 2 27 11 7 8 17 15 22 15 5 0
19 10 30 23 11 12 16 15 12 7 -7 -13 -5 -13 9 -2 9 8 22 10 28 6 8 -5 9 -3 4
6 -12 20 131 8 178 -14 21 -10 40 -17 42 -14 2 2 5 48 6 102 l1 98 56 26 c68
31 137 39 197 22 25 -7 115 -59 201 -115 150 -100 299 -184 307 -175 2 3 7 77
11 166 l7 161 -80 26 c-44 14 -109 40 -143 56 -188 87 -299 98 -463 46 -44
-14 -81 -25 -82 -25 -2 0 -3 35 -3 78 l0 79 69 16 c130 32 204 21 349 -51 l96
-47 120 -3 c67 -2 126 1 132 5 6 4 13 26 16 49 l6 41 -37 -13 c-20 -7 -49 -13
-66 -13 -40 -1 -202 38 -355 84 -69 21 -138 39 -155 40 -16 2 -129 -2 -250 -7z
m-230 -478 c3 -6 -1 -7 -9 -4 -18 7 -21 14 -7 14 6 0 13 -4 16 -10z m-155
-204 c0 -2 -8 -10 -17 -17 -16 -13 -17 -12 -4 4 13 16 21 21 21 13z"/>
<path d="M6735 8030 c-11 -17 5 -30 36 -30 22 0 29 5 29 20 0 15 -7 20 -29 20
-17 0 -33 -4 -36 -10z"/>
<path d="M1065 7390 c-3 -5 1 -10 10 -10 9 0 13 5 10 10 -3 6 -8 10 -10 10 -2
0 -7 -4 -10 -10z"/>
<path d="M11155 7390 c-3 -5 1 -10 10 -10 9 0 13 5 10 10 -3 6 -8 10 -10 10
-2 0 -7 -4 -10 -10z"/>
<path d="M5583 7355 c0 -8 4 -12 9 -9 5 3 6 10 3 15 -9 13 -12 11 -12 -6z"/>
<path d="M8567 7322 c-10 -10 -17 -23 -17 -28 0 -4 7 2 16 14 19 27 68 30 83
5 6 -10 11 -13 11 -7 1 35 -66 46 -93 16z"/>
<path d="M4875 7291 c-5 -9 2 -120 25 -383 l11 -127 -66 -112 c-165 -278 -310
-606 -376 -850 -40 -150 -12 -276 115 -504 58 -105 126 -210 208 -317 32 -42
58 -82 58 -88 0 -18 48 -60 67 -60 11 1 5 6 -14 15 -20 8 -35 23 -39 39 -20
81 65 210 117 178 27 -17 38 -14 15 3 -11 8 -27 15 -36 15 -23 0 -51 33 -103
120 -59 102 -95 195 -118 308 -23 114 -24 185 -3 266 22 88 94 231 160 319 55
75 74 91 74 65 0 -27 49 -504 75 -728 8 -74 21 -183 27 -242 8 -71 16 -108 24
-108 6 0 44 -14 84 -31 51 -22 85 -30 116 -28 54 4 68 -8 54 -45 -12 -33 -78
-65 -132 -66 -27 0 -38 -4 -38 -15 0 -9 35 -51 78 -93 42 -43 57 -56 32 -29
-36 39 -40 48 -22 42 15 -4 32 1 52 15 34 25 60 21 60 -9 0 -17 -5 -19 -37
-16 l-38 5 34 -9 c46 -12 69 -36 55 -59 -6 -9 -20 -22 -32 -28 -14 -7 -18 -15
-12 -24 14 -23 -1 -40 -34 -40 -22 0 -52 13 -90 40 -32 22 -54 35 -50 29 5 -9
-1 -10 -23 -6 -30 6 -31 5 -22 -21 4 -15 12 -52 16 -82 l8 -55 125 -3 c205 -6
299 28 423 151 30 30 178 132 252 173 l70 39 155 3 c177 3 191 6 168 28 -45
45 -396 28 -543 -26 -47 -17 -97 -34 -113 -38 -50 -12 -235 -4 -286 12 -27 8
-53 13 -57 10 -4 -2 -10 0 -14 6 -4 6 -12 7 -18 4 -7 -4 0 5 16 20 15 15 27
31 27 37 0 6 3 8 8 6 4 -3 7 8 7 23 0 16 -2 28 -5 28 -3 0 -9 1 -15 2 -5 2
-30 3 -55 4 -34 1 -44 5 -42 16 3 12 1 13 -9 3 -18 -18 -34 -16 -19 2 9 11 9
15 1 15 -32 0 16 98 57 118 28 14 184 49 250 57 79 9 109 17 158 41 42 20 62
39 102 97 58 84 137 161 157 153 7 -2 19 2 26 10 9 11 6 22 -16 55 -16 22 -31
42 -35 44 -4 2 -31 -9 -61 -26 -169 -94 -281 -141 -343 -146 -80 -7 -302 29
-291 47 3 4 -5 6 -17 2 -16 -4 -19 -2 -13 8 5 8 4 11 -3 7 -14 -10 -42 2 -42
18 0 20 49 74 83 91 29 15 30 15 24 -5 -3 -12 -2 -23 2 -25 4 -3 8 7 9 21 3
33 -1 30 54 44 37 10 60 10 117 -1 101 -19 159 -4 264 68 45 31 83 55 85 53 1
-1 8 -1 14 1 7 3 -2 9 -19 15 -25 9 -42 7 -99 -14 -108 -38 -210 -27 -500 58
-81 24 -94 40 -94 116 0 88 57 165 140 192 19 6 85 19 145 30 215 38 285 54
285 63 0 15 -89 48 -129 48 -23 0 -38 5 -38 13 0 6 -15 34 -33 60 -18 27 -41
71 -52 99 -24 64 -33 72 -88 78 -115 13 -235 -1 -276 -32 -7 -5 -16 -3 -22 5
-17 20 26 99 87 163 62 64 98 74 182 53 l55 -15 12 101 c7 55 22 132 33 170
29 100 30 97 -26 117 -27 10 -57 21 -65 25 -8 3 -17 7 -20 8 -3 1 -16 7 -30
12 -168 73 -285 113 -330 113 -27 0 -51 -4 -55 -9z"/>
<path d="M6039 7283 c-13 -16 -12 -17 4 -4 9 7 17 15 17 17 0 8 -8 3 -21 -13z"/>
<path d="M8650 7223 c-15 -66 -16 -68 -45 -66 -25 2 -27 1 -10 -7 31 -13 39
-12 53 11 11 18 28 129 19 129 -1 0 -9 -30 -17 -67z"/>
<path d="M8728 7280 c-9 -6 -27 -25 -39 -43 -21 -30 -20 -30 13 6 41 43 82 50
93 16 4 -11 9 -18 12 -16 2 3 0 15 -7 26 -11 22 -44 27 -72 11z"/>
<path d="M8531 7249 c-6 -18 -9 -34 -7 -36 2 -2 9 10 15 28 6 18 9 34 7 36 -2
2 -9 -10 -15 -28z"/>
<path d="M6045 7250 c-3 -6 1 -7 9 -4 18 7 21 14 7 14 -6 0 -13 -4 -16 -10z"/>
<path d="M7302 7238 c7 -19 38 -22 38 -4 0 10 -9 16 -21 16 -12 0 -19 -5 -17
-12z"/>
<path d="M5296 7214 c-20 -19 -18 -22 23 -34 20 -5 31 -5 31 1 0 6 4 8 8 5 4
-2 8 4 8 15 0 10 -6 19 -12 19 -7 0 -19 3 -27 6 -8 3 -22 -2 -31 -12z"/>
<path d="M8760 7144 c-20 -41 -33 -74 -30 -74 3 0 26 21 50 47 25 26 33 37 18
24 -32 -28 -33 -26 -12 24 28 69 9 53 -26 -21z"/>
<path d="M8357 7198 c-24 -13 -21 -45 7 -78 13 -16 27 -49 31 -75 3 -26 9 -45
11 -42 11 11 -11 91 -32 117 -13 15 -24 37 -24 48 0 45 54 31 119 -31 25 -23
40 -35 33 -26 -6 9 -8 20 -4 24 4 5 2 5 -4 2 -6 -3 -24 7 -39 23 -34 35 -75
51 -98 38z"/>
<path d="M5432 7187 c-7 -7 -7 -18 -2 -27 7 -11 11 -11 24 -1 9 8 16 20 16 27
0 18 -24 18 -38 1z"/>
<path d="M8858 7173 c7 -3 16 -2 19 1 4 3 -2 6 -13 5 -11 0 -14 -3 -6 -6z"/>
<path d="M8901 7154 c10 -17 10 -28 0 -51 -13 -31 -72 -100 -107 -124 -12 -8
-33 -34 -46 -59 -14 -25 -42 -56 -62 -69 -20 -13 -35 -31 -35 -40 1 -13 2 -13
6 1 2 9 13 20 23 23 20 6 90 82 90 97 0 4 31 38 69 75 76 76 97 122 66 152
-16 15 -16 15 -4 -5z"/>
<path d="M6110 7081 c0 -6 5 -13 10 -16 6 -3 10 1 10 9 0 9 -4 16 -10 16 -5 0
-10 -4 -10 -9z"/>
<path d="M6960 7021 c0 -12 6 -21 16 -21 9 0 14 7 12 17 -5 25 -28 28 -28 4z"/>
<path d="M6499 6977 c-52 -34 -79 -97 -79 -182 0 -38 5 -77 10 -85 6 -10 10
-11 10 -2 0 23 15 12 38 -28 25 -45 66 -70 104 -66 14 2 44 18 67 37 47 39 63
77 37 91 -24 13 -20 64 6 82 21 15 21 16 3 16 -49 0 -106 63 -129 143 -7 23
-26 22 -67 -6z"/>
<path d="M7194 6979 c-8 -14 11 -33 25 -25 6 4 11 11 11 16 0 13 -29 20 -36 9z"/>
<path d="M8416 6942 c-2 -4 4 -8 14 -8 10 0 16 4 14 8 -3 4 -9 8 -14 8 -5 0
-11 -4 -14 -8z"/>
<path d="M8402 6895 c0 -16 2 -22 5 -12 2 9 2 23 0 30 -3 6 -5 -1 -5 -18z"/>
<path d="M5795 6887 c-55 -30 -85 -91 -85 -173 0 -46 4 -65 17 -75 15 -12 16
-12 10 4 -4 11 -3 16 3 12 6 -3 10 -12 10 -20 0 -7 16 -27 37 -45 31 -28 42
-31 75 -27 22 3 48 13 58 22 10 9 24 14 30 10 6 -4 17 8 25 29 19 45 19 56 0
56 -20 0 -35 40 -23 63 5 9 15 17 23 17 8 0 15 7 15 15 0 8 -6 12 -14 9 -30
-12 -98 41 -127 98 l-14 27 -40 -22z m162 -272 c0 -8 -4 -12 -9 -9 -5 3 -6 10
-3 15 9 13 12 11 12 -6z"/>
<path d="M7227 6873 c-13 -12 -7 -23 13 -23 11 0 20 7 20 15 0 15 -21 21 -33
8z"/>
<path d="M8339 6793 c-41 -38 -133 -121 -205 -185 -72 -64 -179 -168 -239
-232 -59 -64 -112 -116 -118 -116 -35 0 -219 237 -342 439 -32 51 -41 60 -46
45 -4 -11 -13 -93 -19 -184 -7 -91 -15 -201 -19 -244 l-7 -80 45 -55 c125
-155 266 -277 352 -303 35 -10 45 -9 82 9 105 51 364 341 656 736 64 86 108
137 119 137 10 0 27 7 38 16 18 15 18 15 -3 5 -33 -16 -100 -13 -131 6 -15 9
-41 30 -58 45 l-31 29 -74 -68z"/>
<path d="M7086 6725 c-37 -25 -73 -45 -79 -45 -25 -1 -49 -30 -62 -74 -8 -25
-12 -46 -9 -46 11 0 170 111 207 144 37 34 49 66 23 66 -7 0 -44 -20 -80 -45z"/>
<path d="M6146 6683 c-3 -10 -8 -36 -12 -57 -4 -22 -18 -66 -30 -98 -27 -66
-29 -75 -11 -60 6 6 15 11 19 11 5 1 32 13 61 27 l54 25 -32 80 c-37 92 -41
97 -49 72z"/>
<path d="M7007 6484 c-14 -14 -6 -24 19 -24 16 0 24 5 22 13 -5 14 -31 21 -41
11z"/>
<path d="M6250 6439 c0 -4 -20 -19 -44 -33 -24 -14 -68 -48 -98 -76 -29 -28
-85 -76 -124 -108 -86 -69 -136 -140 -132 -185 3 -36 6 -37 163 -57 49 -6 129
-24 178 -41 67 -22 109 -29 165 -29 l75 0 42 44 c24 24 51 66 60 92 10 27 33
65 52 84 27 30 33 43 33 82 l0 45 -44 6 c-89 12 -154 46 -227 116 -63 60 -99
82 -99 60z"/>
<path d="M5985 6290 c2 -27 10 -33 12 -10 1 11 -2 22 -6 24 -4 3 -7 -4 -6 -14z"/>
<path d="M5825 6200 c-3 -6 1 -7 9 -4 18 7 21 14 7 14 -6 0 -13 -4 -16 -10z"/>
<path d="M5303 6193 c-10 -3 -10 -10 -3 -24 9 -15 15 -17 30 -9 11 6 20 15 20
19 0 11 -31 19 -47 14z"/>
<path d="M7165 6030 c-8 -12 20 -24 35 -15 6 3 8 11 5 16 -8 12 -32 12 -40 -1z"/>
<path d="M5657 6003 c-4 -3 1 -12 10 -18 13 -9 22 -10 34 -2 10 6 15 15 13 19
-6 10 -48 11 -57 1z"/>
<path d="M5648 5973 c7 -3 16 -2 19 1 4 3 -2 6 -13 5 -11 0 -14 -3 -6 -6z"/>
<path d="M6820 5950 c0 -5 9 -10 20 -10 11 0 20 5 20 10 0 6 -9 10 -20 10 -11
0 -20 -4 -20 -10z"/>
<path d="M7082 5883 c-18 -7 -4 -23 19 -23 12 0 19 5 17 12 -5 14 -18 18 -36
11z"/>
<path d="M6506 5848 c3 -5 10 -6 15 -3 13 9 11 12 -6 12 -8 0 -12 -4 -9 -9z"/>
<path d="M6495 5820 c-3 -6 1 -7 9 -4 18 7 21 14 7 14 -6 0 -13 -4 -16 -10z"/>
<path d="M6345 5770 c-3 -6 1 -7 9 -4 18 7 21 14 7 14 -6 0 -13 -4 -16 -10z"/>
<path d="M5960 5751 c0 -6 4 -13 10 -16 6 -3 7 1 4 9 -7 18 -14 21 -14 7z"/>
<path d="M5885 5729 c35 -20 119 -112 174 -191 29 -42 68 -89 87 -103 31 -23
36 -25 49 -11 9 8 14 18 13 21 -2 3 22 18 53 33 45 22 68 27 122 26 37 0 69
-3 72 -5 2 -3 2 -14 -1 -25 -6 -23 -60 -55 -98 -57 -27 -2 -43 -24 -28 -39 14
-14 78 19 117 59 37 38 100 156 86 161 -4 1 -38 -9 -75 -23 -73 -28 -168 -42
-210 -31 -33 8 -101 69 -132 118 -19 29 -32 38 -61 43 -21 3 -56 10 -78 16
-22 5 -56 12 -75 14 -30 4 -32 3 -15 -6z"/>
<path d="M7173 5723 c-13 -2 -23 -11 -23 -19 0 -21 28 -17 40 6 6 11 9 19 8
19 -2 -1 -13 -4 -25 -6z"/>
<path d="M5765 5710 c-3 -6 1 -7 9 -4 18 7 21 14 7 14 -6 0 -13 -4 -16 -10z"/>
<path d="M6620 5681 c0 -5 -3 -16 -6 -25 -8 -20 15 -21 42 -2 21 16 19 20 -13
30 -13 4 -23 3 -23 -3z"/>
<path d="M5207 5633 c-12 -11 -8 -21 13 -26 15 -4 20 0 20 14 0 18 -20 26 -33
12z"/>
<path d="M6894 5489 c-10 -17 13 -36 27 -22 12 12 4 33 -11 33 -5 0 -12 -5
-16 -11z"/>
<path d="M6015 5470 c-3 -6 1 -7 9 -4 18 7 21 14 7 14 -6 0 -13 -4 -16 -10z"/>
<path d="M7102 5443 c-17 -7 -5 -23 19 -23 10 0 19 7 19 15 0 15 -14 18 -38 8z"/>
<path d="M6430 5340 c-6 -11 -9 -20 -8 -21 29 -8 39 -6 29 4 -14 14 -14 30 1
21 7 -4 8 -3 4 4 -10 16 -14 15 -26 -8z"/>
<path d="M6180 5321 c0 -7 -5 -9 -12 -5 -7 5 -8 3 -3 -5 5 -9 10 -10 18 -2 6
6 8 14 4 18 -4 3 -7 1 -7 -6z"/>
<path d="M6447 5107 c-4 -10 -13 -17 -22 -17 -22 0 -18 -18 6 -25 28 -9 42 6
31 35 -7 19 -10 21 -15 7z"/>
<path d="M6860 5105 c0 -11 7 -15 23 -13 12 2 22 8 22 13 0 6 -10 11 -22 13
-16 2 -23 -2 -23 -13z"/>
<path d="M6972 5032 c4 -19 29 -23 35 -6 2 6 -6 14 -17 17 -16 4 -20 1 -18
-11z"/>
<path d="M5657 4974 c-3 -4 1 -13 9 -21 12 -12 18 -13 29 -3 8 7 15 16 15 21
0 10 -43 12 -53 3z"/>
<path d="M1145 4570 c4 -6 11 -8 16 -5 14 9 11 15 -7 15 -8 0 -12 -5 -9 -10z"/>
<path d="M6360 4515 c-159 -58 -213 -90 -292 -176 -39 -42 -70 -80 -69 -83 3
-15 -36 -41 -56 -38 -16 3 -23 -1 -23 -11 0 -8 5 -17 12 -19 7 -3 -5 -20 -28
-41 -39 -37 -54 -44 -54 -28 0 14 -38 1 -44 -15 -3 -8 -1 -14 5 -14 6 0 7 -5
4 -10 -4 -6 -10 -8 -15 -5 -4 3 -10 1 -12 -4 -6 -16 -156 -61 -207 -61 -84 0
-266 99 -365 197 -5 6 -4 -18 10 -124 3 -24 9 -45 14 -48 4 -3 6 -13 3 -24 -5
-20 61 -436 71 -448 1 -2 94 -12 207 -24 135 -14 278 -21 424 -22 206 -1 224
0 285 22 36 13 108 29 160 37 135 20 213 48 259 92 7 7 11 15 9 17 -3 3 -61
-2 -131 -10 -69 -8 -133 -12 -141 -9 -33 13 -31 75 5 146 12 23 48 60 94 94
106 79 102 88 -24 54 -40 -12 -75 -19 -76 -18 -2 2 3 35 10 73 7 39 18 102 25
140 7 39 17 75 22 82 5 7 7 16 4 21 -5 9 18 219 30 266 8 33 2 33 -116 -9z"/>
<path d="M5406 4492 c-3 -5 1 -9 9 -9 8 0 12 4 9 9 -3 4 -7 8 -9 8 -2 0 -6 -4
-9 -8z"/>
<path d="M5382 4454 c-16 -17 -7 -34 18 -34 24 0 33 27 12 39 -12 6 -21 4 -30
-5z"/>
<path d="M6630 4450 c-11 -7 -12 -12 -3 -21 14 -14 46 -4 41 13 -6 16 -20 19
-38 8z"/>
<path d="M5306 4325 c-3 -9 -9 -14 -14 -11 -4 2 -8 -5 -8 -18 0 -18 4 -21 28
-18 31 5 38 31 14 51 -11 9 -15 8 -20 -4z"/>
<path d="M6892 4118 c7 -19 38 -22 38 -4 0 10 -9 16 -21 16 -12 0 -19 -5 -17
-12z"/>
<path d="M6647 3954 c-14 -14 -6 -24 19 -24 16 0 24 5 22 13 -5 14 -31 21 -41
11z"/>
<path d="M6700 3871 c0 -28 21 -37 36 -16 16 22 10 35 -17 35 -12 0 -19 -7
-19 -19z"/>
<path d="M1420 3800 c-9 -16 -8 -20 5 -20 8 0 15 9 15 20 0 11 -2 20 -5 20 -2
0 -9 -9 -15 -20z"/>
<path d="M6824 3714 c-17 -7 -4 -62 20 -77 11 -8 38 -20 60 -27 28 -9 35 -15
25 -21 -8 -5 -9 -9 -4 -9 26 0 41 28 59 113 l6 27 -77 -1 c-43 0 -83 -3 -89
-5z"/>
<path d="M1788 3133 c6 -2 18 -2 25 0 6 3 1 5 -13 5 -14 0 -19 -2 -12 -5z"/>
<path d="M1832 3121 c-11 -7 -11 -9 0 -14 9 -3 15 1 15 9 0 8 -1 14 -1 14 -1
0 -7 -4 -14 -9z"/>
<path d="M1900 3106 c0 -2 7 -7 16 -10 8 -3 12 -2 9 4 -6 10 -25 14 -25 6z"/>
<path d="M8088 1163 c7 -3 16 -2 19 1 4 3 -2 6 -13 5 -11 0 -14 -3 -6 -6z"/>
<path d="M8038 1153 c7 -3 16 -2 19 1 4 3 -2 6 -13 5 -11 0 -14 -3 -6 -6z"/>
<path d="M7488 1073 c7 -3 16 -2 19 1 4 3 -2 6 -13 5 -11 0 -14 -3 -6 -6z"/>
<path d="M5341 796 c4 -4 21 -11 39 -16 19 -5 29 -6 24 -1 -10 10 -72 26 -63
17z"/>
<path d="M5368 753 c7 -3 16 -2 19 1 4 3 -2 6 -13 5 -11 0 -14 -3 -6 -6z"/>
</g>
</svg>
